<svg xmlns="http://www.w3.org/2000/svg" viewBox="0 0 48 48" width="48px" height="48px">
  <linearGradient id="awSgIinfw5_FS5MLHI~A9a" x1="6.228" x1="6.228" y1="4.896" y2="43.432" gradientUnits="userSpaceOnUse">
    <stop offset="0" stop-color="#0d61a9"/>
    <stop offset="1" stop-color="#16528c"/>
  </linearGradient>
  <path fill="url(#awSgIinfw5_FS5MLHI~A9a)" d="M42,40c0,1.105-0.895,2-2,2H8c-1.105,0-2-0.895-2-2V8c0-1.105,0.895-2,2-2h32 c1.105,0,2,0.895,2,2V40z"/>
  <path fill="#fff" d="M25,38V27h-4v-6h4v-2.138c0-5.042,2.666-7.818,7.505-7.818c1.995,0,3.077,0.14,3.598,0.208 l0.858,0.111L37,12.224L37,17h-3.635C32.237,17,32,18.378,32,19.535V21h4.723l-0.928,6H32v11H25z"/>
</svg> 