<svg xmlns="http://www.w3.org/2000/svg" viewBox="0 0 48 48" width="48px" height="48px">
  <path fill="#2196F3" d="M34,42H14c-1.1,0-2-0.9-2-2V8c0-1.1,0.9-2,2-2h20c1.1,0,2,0.9,2,2v32C36,41.1,35.1,42,34,42z"/>
  <path fill="#BBDEFB" d="M28,6h-8v0h8V6z"/>
  <path fill="#fff" d="M30,40H18c-0.6,0-1-0.4-1-1V9c0-0.6,0.4-1,1-1h12c0.6,0,1,0.4,1,1v30C31,39.6,30.6,40,30,40z"/>
  <path fill="#BBDEFB" d="M25,36h-2c-0.6,0-1-0.4-1-1v0c0-0.6,0.4-1,1-1h2c0.6,0,1,0.4,1,1v0C26,35.6,25.6,36,25,36z"/>
  <path fill="#2196F3" d="M26.5,12h-5c-0.3,0-0.5-0.2-0.5-0.5v0c0-0.3,0.2-0.5,0.5-0.5h5c0.3,0,0.5,0.2,0.5,0.5v0C27,11.8,26.8,12,26.5,12z M24,39.5c-0.8,0-1.5-0.7-1.5-1.5s0.7-1.5,1.5-1.5s1.5,0.7,1.5,1.5S24.8,39.5,24,39.5z"/>
</svg> 