<svg xmlns="http://www.w3.org/2000/svg" viewBox="0 0 48 48" width="48px" height="48px">
  <path fill="#3F51B5" d="M40,10H8c-2.2,0-4,1.8-4,4v20c0,2.2,1.8,4,4,4h32c2.2,0,4-1.8,4-4V14C44,11.8,42.2,10,40,10z"/>
  <path fill="#D1C4E9" d="M24,28L8,18v-4h32v4L24,28z"/>
  <path fill="#FFC107" d="M24,31c-0.8,0-1.5-0.2-2.2-0.6L8,22.7V34c0,1.1,0.9,2,2,2h28c1.1,0,2-0.9,2-2V22.7l-13.8,7.7C25.5,30.8,24.8,31,24,31z"/>
  <path fill="#F44336" d="M34.5,15.5h-21c-0.8,0-1.5,0.7-1.5,1.5v0c0,0.8,0.7,1.5,1.5,1.5h21c0.8,0,1.5-0.7,1.5-1.5v0C36,16.2,35.3,15.5,34.5,15.5z"/>
  <path fill="#F44336" d="M34.5,21.5h-21c-0.8,0-1.5,0.7-1.5,1.5v0c0,0.8,0.7,1.5,1.5,1.5h21c0.8,0,1.5-0.7,1.5-1.5v0C36,22.2,35.3,21.5,34.5,21.5z"/>
  <path fill="#F44336" d="M34.5,27.5h-21c-0.8,0-1.5,0.7-1.5,1.5v0c0,0.8,0.7,1.5,1.5,1.5h21c0.8,0,1.5-0.7,1.5-1.5v0C36,28.2,35.3,27.5,34.5,27.5z"/>
</svg> 