<svg xmlns="http://www.w3.org/2000/svg" width="48" height="48" viewBox="0 0 48 48">
  <path fill="#212121" d="M37.2,13.2c-2,0-3.8-0.7-5.3-1.7V29c0,7.7-6.2,13.8-13.8,13.8c-7.7,0-13.8-6.2-13.8-13.8 c0-7.7,6.2-13.8,13.8-13.8c0.3,0,0.6,0,0.9,0v6.7c-0.3,0-0.6-0.1-0.9-0.1c-3.9,0-7.1,3.2-7.1,7.1c0,3.9,3.2,7.1,7.1,7.1 c3.9,0,7.1-3.2,7.1-7.1l0-32.8h6.9c0.6,3.9,3.6,6.9,7.4,7.7L37.2,13.2z"/>
  <path fill="#ff004f" d="M37.2,13.2c-0.6,0-1.1-0.1-1.7-0.2l-1.9,9.4c0.7-0.2,1.4-0.3,2.1-0.3c4.8,0,8.6,3.9,8.6,8.6 c0,3.8-2.5,7.1-5.9,8.2c-0.6,0.2-1.2,0.3-1.9,0.4c5.1-0.9,8.9-5.3,8.9-10.6C45.5,20.5,42,14.5,37.2,13.2z"/>
  <path fill="#00f2ea" d="M30.8,30.8c-0.4-0.6-0.9-1.1-1.5-1.6v2.2c0,3.9-3.2,7.1-7.1,7.1c-2,0-3.8-0.8-5-2.1 c1.4,1.7,3.5,2.7,5.8,2.7c4.2,0,7.6-3.4,7.6-7.6C30.5,31.3,30.5,31.1,30.8,30.8z"/>
</svg> 